<svg width="244.85781250000002" height="244.85781250000002" viewBox="0 0 312.5 312.5" class="css-1j8o68f"><defs id="SvgjsDefs1372"></defs><g id="SvgjsG1373" featurekey="rootContainer" transform="matrix(2.94811320754717,0,0,2.94811320754717,0,0)" fill="#f9f8eb"><rect xmlns="http://www.w3.org/2000/svg" width="106" height="106" rx="15" ry="15"></rect></g><g id="SvgjsG1374" featurekey="symbolFeature-0" transform="matrix(0.8781558138327361,0,0,0.8781558138327361,112.75082344694513,82.60922093083632)" fill="#111111"><metadata xmlns="http://www.w3.org/2000/svg"><x:xmpmeta xmlns:x="adobe:ns:meta/" x:xmptk="Adobe XMP Core 5.6-c014 79.156821, 2014/08/29-03:07:50        "></x:xmpmeta></metadata><path xmlns="http://www.w3.org/2000/svg" d="M85.2,87.7c0.1-0.3,0.2-0.6,0.2-1V48.2c0-1.6-1.3-2.8-2.8-2.8H15.4c-1.6,0-2.8,1.3-2.8,2.8v38.5c0,0.4,0.1,0.7,0.2,1H3.7  v0.7c0,1.5,1.3,2.8,2.8,2.8H92c1.6,0,2.8-1.3,2.8-2.8v-0.7H85.2z M49.5,48c0.4,0,0.8,0.3,0.8,0.8c0,0.4-0.3,0.8-0.8,0.8  s-0.8-0.4-0.8-0.8S49,48,49.5,48z M81.2,84.9H17V51.7h64.2V84.9z"></path><path xmlns="http://www.w3.org/2000/svg" d="M49.2,7c8.6,0,16.5,2.7,23.1,7.2l1.2-1.6C66.6,7.8,58.2,5,49.2,5c-9,0-17.4,2.8-24.2,7.6l1.2,1.6C32.7,9.7,40.7,7,49.2,7z"></path><path xmlns="http://www.w3.org/2000/svg" d="M49.2,15.3c6.7,0,13,2.1,18.2,5.6l1.2-1.6c-5.5-3.8-12.2-6-19.4-6s-13.8,2.2-19.4,6l1.2,1.6C36.2,17.4,42.5,15.3,49.2,15.3z  "></path><path xmlns="http://www.w3.org/2000/svg" d="M49.2,23.7c4.9,0,9.5,1.5,13.3,4l1.2-1.6c-4.1-2.8-9.1-4.4-14.5-4.4c-5.3,0-10.3,1.6-14.5,4.4l1.2,1.6  C39.7,25.1,44.3,23.7,49.2,23.7z"></path><path xmlns="http://www.w3.org/2000/svg" d="M49.2,32c3.1,0,5.9,0.9,8.4,2.4l1.2-1.6C56,31,52.7,30,49.2,30c-3.5,0-6.8,1-9.5,2.8l1.2,1.6C43.3,32.9,46.1,32,49.2,32z"></path><path xmlns="http://www.w3.org/2000/svg" d="M49.2,40.3c1.3,0,2.4,0.3,3.5,0.9l1.2-1.6c-1.4-0.8-2.9-1.2-4.6-1.2c-1.7,0-3.3,0.5-4.6,1.2l1.2,1.6  C46.8,40.6,48,40.3,49.2,40.3z"></path></g><g id="SvgjsG1375" featurekey="nameFeature-0" transform="matrix(1.3702667217399476,0,0,1.3702667217399476,56.274053736384445,169.68100579199884)" fill="#111111"><path d="M10.28 26.36 l0 13.64 l-3.52 0 l0 -13.64 l-6.96 -16.36 l3.88 0 l4.8 11.92 l4.88 -11.92 l3.88 0 z M25.971 40.36 c-2.5067 0 -4.3932 -0.70668 -5.66 -2.12 s-1.9 -3.48 -1.9 -6.2 l0 -14 c0 -2.7467 0.64 -4.82 1.92 -6.22 s3.32 -2.1 6.12 -2.1 c2.56 0 4.4668 0.70668 5.72 2.12 s1.88 3.4533 1.88 6.12 l0 14.08 c0 2.7467 -0.61332 4.82 -1.84 6.22 s-3.3067 2.1 -6.24 2.1 z M30.611 17.92 c0 -0.58668 -0.07328 -1.1667 -0.21996 -1.74 s-0.38 -1.0866 -0.7 -1.54 s-0.74668 -0.82 -1.28 -1.1 s-1.2 -0.42 -2 -0.42 c-0.90668 0 -1.6534 0.12 -2.24 0.36 s-1.0534 0.59332 -1.4 1.06 s-0.58668 1.02 -0.72 1.66 s-0.2 1.36 -0.2 2.16 l0 13.48 c0 0.61332 0.06668 1.22 0.2 1.82 s0.35332 1.14 0.66 1.62 s0.72668 0.86668 1.26 1.16 s1.2 0.44 2 0.44 c0.90668 0 1.66 -0.11332 2.26 -0.34 s1.0733 -0.55336 1.42 -0.98004 s0.59336 -0.94668 0.74004 -1.56 s0.22 -1.2933 0.22 -2.04 l0 -14.04 z M45.942 40.36 c-2.4267 0 -4.32 -0.71328 -5.68 -2.14 s-2.04 -3.4867 -2.04 -6.18 l0 -22.04 l3.48 0 l0 21.96 c0 0.56 0.07332 1.1333 0.22 1.72 s0.38 1.1067 0.7 1.56 s0.74668 0.82664 1.28 1.12 s1.1866 0.44 1.96 0.44 c0.88 0 1.6133 -0.12668 2.2 -0.38 s1.0534 -0.62 1.4 -1.1 s0.59336 -1.0533 0.74004 -1.72 s0.22 -1.4 0.22 -2.2 l0 -21.4 l3.44 0 l0 22.04 c0 2.7467 -0.65332 4.82 -1.96 6.22 s-3.2934 2.1 -5.96 2.1 z M71.87299999999999 40 l-6 -11.8 l-4.36 0 l0 11.8 l-3.32 0 l0 -30 l6.96 0 c1.5733 0 2.92 0.24668 4.04 0.74 s2.04 1.16 2.76 2 s1.2533 1.8 1.6 2.88 s0.52 2.2067 0.52 3.38 c0 0.93332 -0.11332 1.84 -0.34 2.72 s-0.55336 1.6933 -0.98004 2.44 s-0.92668 1.42 -1.5 2.02 s-1.1933 1.0733 -1.86 1.42 l6.68 12.4 l-4.2 0 z M64.913 13.32 l-3.4 0.000039062 l0 11.4 l3.64 0 c1.0933 0 1.9933 -0.16668 2.7 -0.5 s1.26 -0.77332 1.66 -1.32 s0.68 -1.1734 0.84 -1.88 s0.24 -1.4467 0.24 -2.22 s-0.12668 -1.4933 -0.38 -2.16 s-0.62 -1.2467 -1.1 -1.74 s-1.0733 -0.88 -1.78 -1.16 s-1.5134 -0.42 -2.42 -0.42 z M91.484 32.08 c-0.02668 1.36 -0.15992 2.5533 -0.39992 3.58 s-0.63332 1.8867 -1.18 2.58 s-1.2734 1.22 -2.18 1.58 s-2.04 0.54 -3.4 0.54 c-2.3733 0 -4.1132 -0.71332 -5.22 -2.14 s-1.66 -3.4867 -1.66 -6.18 l0 -14 c0 -2.7467 0.56 -4.82 1.68 -6.22 s2.9733 -2.1 5.56 -2.1 c2.4 0 4.12 0.71332 5.16 2.14 s1.5867 3.4734 1.64 6.14 l0.04 2.56 l-3.12 0 l-0.04 -3 c0 -0.58668 -0.05332 -1.1667 -0.16 -1.74 s-0.29336 -1.0733 -0.56004 -1.5 s-0.64 -0.77336 -1.12 -1.04 s-1.12 -0.4 -1.92 -0.4 c-1.5733 0 -2.6333 0.46 -3.18 1.38 s-0.82 2.18 -0.82 3.78 l0.04 14.2 c0 1.6267 0.26 2.8334 0.78 3.62 s1.4867 1.18 2.9 1.18 c0.8 0 1.46 -0.10668 1.98 -0.32 s0.93332 -0.52 1.24 -0.92 s0.52 -0.89332 0.64 -1.48 s0.18 -1.2534 0.18 -2 l0.04 -3.24 l3.12 0 z M107.255 40 l-0.04 -13.24 l-8.4 0 l0.04 13.24 l-3.6 0 l0 -30 l3.6 0 l-0.04 13.2 l8.4 0 l0.04 -13.2 l3.64 0 l0 30 l-3.64 0 z M128.546 40 l-2.04 -8.36 l-7.76 0 l-2.04 8.36 l-3.4 0 l8 -30 l2.76 0 l7.96 30 l-3.48 0 z M122.74600000000001 15.8 l-3.16 12.44 l6.08 0 z M139.877 13.64 l0 26.36 l-3.6 0 l0 -26.36 l-5.88 0 l0 -3.64 l15.36 0 l0 3.64 l-5.88 0 z"></path></g></svg>